<svg width="16" height="16" viewBox="0 0 16 16" fill="none" xmlns="http://www.w3.org/2000/svg">
<path d="M8.23992 2.6665C4.38659 2.6665 1.76259 6.57117 3.21593 10.1398L3.83793 11.6652C3.86509 11.7317 3.87003 11.8052 3.85201 11.8748C3.83399 11.9443 3.79397 12.0062 3.73793 12.0512L2.42259 13.1065C2.36874 13.1497 2.32963 13.2086 2.31067 13.2749C2.29171 13.3413 2.29383 13.412 2.31673 13.4771C2.33964 13.5422 2.3822 13.5986 2.43854 13.6385C2.49488 13.6784 2.56222 13.6999 2.63126 13.6998H7.84459C8.60917 13.7001 9.3663 13.5497 10.0727 13.2573C10.7792 12.9648 11.4211 12.536 11.9617 11.9954C12.5024 11.4548 12.9312 10.813 13.2238 10.1066C13.5163 9.40019 13.6668 8.64308 13.6666 7.8785C13.6666 4.99984 11.3333 2.6665 8.45459 2.6665H8.23992Z" fill="#9369FF"/>
</svg>
