<svg width="16" height="16" viewBox="0 0 16 16" fill="none" xmlns="http://www.w3.org/2000/svg">
<path d="M5.66658 3.3335C5.40137 3.3335 5.14701 3.43885 4.95948 3.62639C4.77194 3.81393 4.66658 4.06828 4.66658 4.3335C4.66658 4.59871 4.77194 4.85307 4.95948 5.0406C5.14701 5.22814 5.40137 5.3335 5.66658 5.3335C5.9318 5.3335 6.18616 5.22814 6.37369 5.0406C6.56123 4.85307 6.66658 4.59871 6.66658 4.3335C6.66658 4.06828 6.56123 3.81393 6.37369 3.62639C6.18616 3.43885 5.9318 3.3335 5.66658 3.3335ZM6.66658 1.3335C7.55064 1.3335 8.39849 1.68469 9.02361 2.30981C9.64873 2.93493 9.99992 3.78277 9.99992 4.66683C9.99992 5.80016 9.43325 6.80016 8.57325 7.40016C9.62659 7.50016 10.8133 7.74016 11.9999 8.3335C13.9999 9.3335 14.6666 8.00016 14.6666 8.00016C14.6666 8.00016 13.9999 14.0002 9.99992 14.0002H5.99992C5.99992 14.0002 2.66659 14.0002 2.66659 10.6668C2.66659 8.66683 4.66658 8.00016 3.99992 6.66683C1.33325 6.66683 1.33325 4.3335 1.33325 4.3335C1.99992 4.66683 2.82659 4.66683 3.33325 4.4335C3.39547 3.59163 3.77354 2.80438 4.39169 2.22949C5.00985 1.65461 5.82242 1.33456 6.66658 1.3335Z" fill="#FFCC00"/>
</svg>
