<svg width="431" height="149" viewBox="0 0 431 149" fill="none" xmlns="http://www.w3.org/2000/svg">
<rect width="431" height="149" rx="12" fill="white"/>
<rect width="431" height="149" rx="12" fill="white"/>
<path d="M36.6666 114.333C36.4014 114.333 36.147 114.439 35.9595 114.626C35.7719 114.814 35.6666 115.068 35.6666 115.333C35.6666 115.599 35.7719 115.853 35.9595 116.041C36.147 116.228 36.4014 116.333 36.6666 116.333C36.9318 116.333 37.1862 116.228 37.3737 116.041C37.5612 115.853 37.6666 115.599 37.6666 115.333C37.6666 115.068 37.5612 114.814 37.3737 114.626C37.1862 114.439 36.9318 114.333 36.6666 114.333ZM37.6666 112.333C38.5506 112.333 39.3985 112.685 40.0236 113.31C40.6487 113.935 40.9999 114.783 40.9999 115.667C40.9999 116.8 40.4333 117.8 39.5733 118.4C40.6266 118.5 41.8133 118.74 42.9999 119.333C44.9999 120.333 45.6666 119 45.6666 119C45.6666 119 44.9999 125 40.9999 125H36.9999C36.9999 125 33.6666 125 33.6666 121.667C33.6666 119.667 35.6666 119 34.9999 117.667C32.3333 117.667 32.3333 115.333 32.3333 115.333C32.9999 115.667 33.8266 115.667 34.3333 115.433C34.3955 114.592 34.7735 113.804 35.3917 113.229C36.0098 112.655 36.8224 112.335 37.6666 112.333Z" fill="#FFCC00"/>
<path d="M85.2399 112.667C81.3866 112.667 78.7626 116.571 80.2159 120.14L80.8379 121.665C80.8651 121.732 80.87 121.805 80.852 121.875C80.834 121.944 80.794 122.006 80.7379 122.051L79.4226 123.107C79.3687 123.15 79.3296 123.209 79.3107 123.275C79.2917 123.341 79.2938 123.412 79.3167 123.477C79.3396 123.542 79.3822 123.599 79.4385 123.639C79.4949 123.678 79.5622 123.7 79.6313 123.7H84.8446C85.6092 123.7 86.3663 123.55 87.0727 123.257C87.7792 122.965 88.4211 122.536 88.9617 121.995C89.5024 121.455 89.9312 120.813 90.2238 120.107C90.5163 119.4 90.6668 118.643 90.6666 117.879C90.6666 115 88.3333 112.667 85.4546 112.667H85.2399Z" fill="#9369FF"/>
<path d="M97.8778 123.119C95.973 123.119 94.6264 122.08 94.6307 120.661C94.6264 119.57 95.4233 118.658 96.4545 118.487V118.428C95.5554 118.232 94.9503 117.439 94.9545 116.493C94.9503 115.146 96.1861 114.153 97.8778 114.153C99.5568 114.153 100.793 115.151 100.797 116.493C100.793 117.439 100.179 118.232 99.2969 118.428V118.487C100.311 118.658 101.116 119.57 101.121 120.661C101.116 122.08 99.7656 123.119 97.8778 123.119ZM96.2585 120.55C96.25 121.355 96.8892 121.901 97.8778 121.901C98.8537 121.901 99.4886 121.355 99.4972 120.55C99.4886 119.719 98.8068 119.122 97.8778 119.122C96.9361 119.122 96.25 119.714 96.2585 120.55ZM96.4972 116.642C96.4886 117.401 97.0682 117.925 97.8778 117.925C98.6747 117.925 99.25 117.405 99.2585 116.642C99.25 115.892 98.6918 115.389 97.8778 115.389C97.0511 115.389 96.4886 115.892 96.4972 116.642Z" fill="#817F7F"/>
<path d="M141.453 120.75H139.578L139.28 122.574C139.233 122.855 139.058 123 138.773 123H138.526C138.206 123 138.048 122.812 138.099 122.497L138.385 120.75H137.661C137.337 120.75 137.179 120.558 137.234 120.243L137.277 119.983C137.324 119.702 137.494 119.557 137.78 119.557H138.581L138.879 117.716H138.168C137.848 117.716 137.686 117.528 137.737 117.213L137.78 116.949C137.827 116.668 138.001 116.523 138.287 116.523H139.075L139.374 114.699C139.42 114.418 139.595 114.273 139.881 114.273H140.128C140.447 114.273 140.605 114.46 140.554 114.776L140.268 116.523H142.143L142.442 114.699C142.489 114.418 142.663 114.273 142.949 114.273H143.196C143.516 114.273 143.673 114.46 143.622 114.776L143.337 116.523H144.057C144.376 116.523 144.538 116.71 144.487 117.026L144.445 117.29C144.398 117.571 144.223 117.716 143.938 117.716H143.141L142.842 119.557H143.554C143.878 119.557 144.036 119.749 143.98 120.064L143.938 120.324C143.891 120.605 143.72 120.75 143.435 120.75H142.646L142.348 122.574C142.301 122.855 142.126 123 141.841 123H141.594C141.274 123 141.116 122.812 141.168 122.497L141.453 120.75ZM139.774 119.557H141.649L141.947 117.716H140.072L139.774 119.557ZM148.528 114.153C150.203 114.162 151.856 115.189 151.86 118.368C151.865 121.372 150.531 123.119 148.439 123.119C146.99 123.119 145.933 122.31 145.575 121.138C145.477 120.818 145.66 120.622 145.988 120.622H146.619C146.892 120.622 147.032 120.75 147.152 121.001C147.386 121.47 147.833 121.751 148.439 121.751C149.645 121.751 150.322 120.639 150.326 118.773H150.267C149.845 119.523 149.027 119.979 148.085 119.979C146.555 119.979 145.383 118.79 145.379 117.145C145.379 115.44 146.636 114.141 148.528 114.153ZM146.913 117.111C146.917 118.044 147.586 118.777 148.515 118.777C149.436 118.777 150.156 118.001 150.152 117.098C150.152 116.207 149.466 115.432 148.532 115.432C147.608 115.432 146.913 116.173 146.913 117.111ZM156.505 123.166C154.4 123.166 153.143 121.504 153.143 118.645C153.147 115.794 154.409 114.153 156.505 114.153C158.602 114.153 159.868 115.798 159.868 118.645C159.868 121.509 158.61 123.17 156.505 123.166ZM154.741 118.645C154.737 120.741 155.419 121.832 156.505 121.832C157.596 121.832 158.274 120.741 158.274 118.645C158.27 116.565 157.592 115.47 156.505 115.47C155.423 115.47 154.745 116.565 154.741 118.645Z" fill="#817F7F"/>
<mask id="mask0_1502_323" style="mask-type:luminance" maskUnits="userSpaceOnUse" x="117" y="111" width="16" height="14">
<path d="M131 112.667H119C118.823 112.667 118.654 112.737 118.529 112.862C118.403 112.987 118.333 113.156 118.333 113.333V122.667C118.333 122.843 118.403 123.013 118.529 123.138C118.654 123.263 118.823 123.333 119 123.333H131C131.177 123.333 131.346 123.263 131.471 123.138C131.596 123.013 131.667 122.843 131.667 122.667V113.333C131.667 113.156 131.596 112.987 131.471 112.862C131.346 112.737 131.177 112.667 131 112.667Z" fill="white" stroke="white" stroke-width="2"/>
<path d="M125 115.667V120.333M127.667 118V120.333M122.333 117.333V120.333" stroke="black" stroke-width="2" stroke-linecap="round"/>
</mask>
<g mask="url(#mask0_1502_323)">
<path d="M117 110H133V126H117V110Z" fill="#00D74C"/>
</g>
<path d="M31.6747 61.2727C31.9347 61.2727 32.1094 61.375 32.233 61.6009L34.1847 65.1335H34.2699L36.2216 61.6009C36.3452 61.375 36.5199 61.2727 36.7798 61.2727H37.5426C37.9134 61.2727 38.054 61.5114 37.8665 61.8352L35.0156 66.7443V69.5312C35.0156 69.8338 34.8494 70 34.5469 70H33.9077C33.6051 70 33.4389 69.8338 33.4389 69.5312V66.7443L30.5881 61.8352C30.4006 61.5114 30.5412 61.2727 30.9119 61.2727H31.6747ZM40.8782 70.1278C38.9606 70.1278 37.7418 68.777 37.7418 66.7528C37.7418 64.7244 38.9606 63.3693 40.8782 63.3693C42.7958 63.3693 44.0146 64.7244 44.0146 66.7528C44.0146 68.777 42.7958 70.1278 40.8782 70.1278ZM39.3058 66.7486C39.3058 67.946 39.8256 68.892 40.8867 68.892C41.9308 68.892 42.4506 67.946 42.4506 66.7486C42.4506 65.5511 41.9308 64.5923 40.8867 64.5923C39.8256 64.5923 39.3058 65.5511 39.3058 66.7486ZM49.4957 63.9233C49.4957 63.6207 49.6619 63.4545 49.9645 63.4545H50.5696C50.8722 63.4545 51.0384 63.6207 51.0384 63.9233V69.5312C51.0384 69.8338 50.8722 70 50.5696 70H50.0114C49.7088 70 49.5426 69.8338 49.5426 69.5312V68.8366H49.4744C49.1761 69.5696 48.4858 70.0852 47.5057 70.0852C46.2188 70.0852 45.3239 69.1946 45.3239 67.6222V63.9233C45.3239 63.6207 45.4901 63.4545 45.7926 63.4545H46.3977C46.7003 63.4545 46.8665 63.6207 46.8665 63.9233V67.3835C46.8665 68.2145 47.3608 68.7386 48.1023 68.7386C48.7841 68.7386 49.4957 68.2443 49.4957 67.2472V63.9233ZM52.6246 63.9233C52.6246 63.6207 52.7908 63.4545 53.0934 63.4545H53.6516C53.9542 63.4545 54.1204 63.6207 54.1204 63.9233V64.5455H54.1886C54.4272 63.7869 55.0536 63.3608 55.8036 63.3608H55.9144C56.2085 63.3736 56.3576 63.5568 56.3576 63.8509V64.3196C56.3576 64.6392 56.2298 64.7841 56.0039 64.7543C55.8846 64.7415 55.7567 64.733 55.6417 64.733C54.7937 64.733 54.1673 65.321 54.1673 66.152V69.5312C54.1673 69.8338 54.0011 70 53.6985 70H53.0934C52.7908 70 52.6246 69.8338 52.6246 69.5312V63.9233ZM62.2425 70.1321C60.994 70.1321 60.0522 69.4503 60.0522 68.1634C60.0522 66.6889 61.2667 66.3097 62.5366 66.1733C63.6914 66.0497 64.1559 66.0284 64.1559 65.5852V65.5597C64.1559 64.9162 63.7638 64.5497 63.0479 64.5497C62.4982 64.5497 62.119 64.7543 61.8931 65.0355C61.7269 65.2528 61.5778 65.3636 61.3093 65.3253L60.7937 65.2528C60.4656 65.206 60.3079 64.9801 60.4656 64.6818C60.93 63.8125 61.8675 63.3693 63.0394 63.3693C64.288 63.3693 65.6985 63.8892 65.6985 65.6193V69.5312C65.6985 69.8338 65.5323 70 65.2298 70H64.6843C64.3817 70 64.2156 69.8381 64.2156 69.5483V69.1009H64.1644C63.8832 69.6506 63.2695 70.1321 62.2425 70.1321ZM61.5394 68.1378C61.5394 68.7045 61.9996 68.9986 62.6431 68.9986C63.5721 68.9986 64.1602 68.3807 64.1602 67.652V66.8807C63.9599 67.0426 63.1502 67.1449 62.7454 67.2003C62.055 67.2983 61.5394 67.5455 61.5394 68.1378ZM68.7923 69.5312C68.7923 69.8338 68.6261 70 68.3235 70H67.7184C67.4158 70 67.2496 69.8338 67.2496 69.5312V61.7415C67.2496 61.4389 67.4158 61.2727 67.7184 61.2727H68.3235C68.6261 61.2727 68.7923 61.4389 68.7923 61.7415V69.5312ZM72.2621 70.1321C71.0135 70.1321 70.0717 69.4503 70.0717 68.1634C70.0717 66.6889 71.2862 66.3097 72.5561 66.1733C73.7109 66.0497 74.1754 66.0284 74.1754 65.5852V65.5597C74.1754 64.9162 73.7834 64.5497 73.0675 64.5497C72.5178 64.5497 72.1385 64.7543 71.9126 65.0355C71.7464 65.2528 71.5973 65.3636 71.3288 65.3253L70.8132 65.2528C70.4851 65.206 70.3274 64.9801 70.4851 64.6818C70.9496 63.8125 71.8871 63.3693 73.0589 63.3693C74.3075 63.3693 75.718 63.8892 75.718 65.6193V69.5312C75.718 69.8338 75.5518 70 75.2493 70H74.7038C74.4013 70 74.2351 69.8381 74.2351 69.5483V69.1009H74.1839C73.9027 69.6506 73.2891 70.1321 72.2621 70.1321ZM71.5589 68.1378C71.5589 68.7045 72.0192 68.9986 72.6626 68.9986C73.5916 68.9986 74.1797 68.3807 74.1797 67.652V66.8807C73.9794 67.0426 73.1697 67.1449 72.7649 67.2003C72.0746 67.2983 71.5589 67.5455 71.5589 68.1378ZM77.2692 63.9233C77.2692 63.6207 77.4354 63.4545 77.7379 63.4545H78.2962C78.5987 63.4545 78.7649 63.6207 78.7649 63.9233V64.5455H78.8331C79.0717 63.7869 79.6982 63.3608 80.4482 63.3608H80.5589C80.853 63.3736 81.0021 63.5568 81.0021 63.8509V64.3196C81.0021 64.6392 80.8743 64.7841 80.6484 64.7543C80.5291 64.7415 80.4013 64.733 80.2862 64.733C79.4382 64.733 78.8118 65.321 78.8118 66.152V69.5312C78.8118 69.8338 78.6456 70 78.343 70H77.7379C77.4354 70 77.2692 69.8338 77.2692 69.5312V63.9233ZM82.027 63.9233C82.027 63.6207 82.1932 63.4545 82.4957 63.4545H83.0327C83.3352 63.4545 83.5014 63.6207 83.5014 63.9233V64.5668H83.5781C83.8509 63.821 84.5071 63.3693 85.3849 63.3693C86.267 63.3693 86.902 63.8253 87.1534 64.5668H87.2216C87.5114 63.8381 88.2358 63.3693 89.1861 63.3693C90.3878 63.3693 91.2315 64.1449 91.2315 65.6065V69.5312C91.2315 69.8338 91.0653 70 90.7628 70H90.1534C89.8509 70 89.6847 69.8338 89.6847 69.5312V65.8452C89.6847 65.0355 89.1903 64.669 88.5682 64.669C87.8224 64.669 87.3835 65.1804 87.3835 65.9176V69.5312C87.3835 69.8338 87.2173 70 86.9148 70H86.3395C86.0369 70 85.8707 69.8338 85.8707 69.5312V65.7812C85.8707 65.108 85.4233 64.669 84.7713 64.669C84.1065 64.669 83.5696 65.2145 83.5696 66.0199V69.5312C83.5696 69.8338 83.4034 70 83.1009 70H82.4957C82.1932 70 82.027 69.8338 82.027 69.5312V63.9233ZM98.6282 70.1278C96.6722 70.1278 95.4918 68.7344 95.4918 66.7528C95.4918 64.7543 96.7021 63.3693 98.6197 63.3693C100.017 63.3693 101.044 64.0852 101.347 65.2145C101.432 65.5298 101.24 65.7216 100.921 65.7216H100.363C100.09 65.7216 99.9535 65.5895 99.8342 65.3381C99.6254 64.9077 99.2205 64.6136 98.641 64.6136C97.6907 64.6136 97.0558 65.4062 97.0558 66.7273C97.0558 68.0653 97.6779 68.8707 98.641 68.8707C99.1822 68.8707 99.6126 68.6151 99.8342 68.1506C99.9535 67.8949 100.094 67.7628 100.367 67.7628H100.921C101.245 67.7628 101.428 67.929 101.364 68.2017C101.087 69.3523 100.094 70.1278 98.6282 70.1278ZM104.241 69.5312C104.241 69.8338 104.075 70 103.773 70H103.168C102.865 70 102.699 69.8338 102.699 69.5312V61.7415C102.699 61.4389 102.865 61.2727 103.168 61.2727H103.773C104.075 61.2727 104.241 61.4389 104.241 61.7415V69.5312ZM108.683 70.1278C106.765 70.1278 105.547 68.777 105.547 66.7528C105.547 64.7244 106.765 63.3693 108.683 63.3693C110.6 63.3693 111.819 64.7244 111.819 66.7528C111.819 68.777 110.6 70.1278 108.683 70.1278ZM107.11 66.7486C107.11 67.946 107.63 68.892 108.691 68.892C109.735 68.892 110.255 67.946 110.255 66.7486C110.255 65.5511 109.735 64.5923 108.691 64.5923C107.63 64.5923 107.11 65.5511 107.11 66.7486ZM115.984 70.1278C114.028 70.1278 112.847 68.7344 112.847 66.7528C112.847 64.7543 114.058 63.3693 115.975 63.3693C117.373 63.3693 118.4 64.0852 118.702 65.2145C118.788 65.5298 118.596 65.7216 118.276 65.7216H117.718C117.445 65.7216 117.309 65.5895 117.19 65.3381C116.981 64.9077 116.576 64.6136 115.996 64.6136C115.046 64.6136 114.411 65.4062 114.411 66.7273C114.411 68.0653 115.033 68.8707 115.996 68.8707C116.538 68.8707 116.968 68.6151 117.19 68.1506C117.309 67.8949 117.45 67.7628 117.722 67.7628H118.276C118.6 67.7628 118.783 67.929 118.719 68.2017C118.442 69.3523 117.45 70.1278 115.984 70.1278ZM120.054 61.7415C120.054 61.4389 120.221 61.2727 120.523 61.2727H121.128C121.431 61.2727 121.597 61.4389 121.597 61.7415V66.0838H121.703L123.826 63.7102C123.988 63.527 124.158 63.4545 124.401 63.4545H125.083C125.492 63.4545 125.615 63.723 125.343 64.0298L123.323 66.2798L125.594 69.429C125.82 69.7443 125.692 70 125.304 70H124.52C124.269 70 124.098 69.9105 123.953 69.706L122.159 67.2003L121.597 67.8011V69.5312C121.597 69.8338 121.431 70 121.128 70H120.523C120.221 70 120.054 69.8338 120.054 69.5312V61.7415ZM130.638 62.5256C130.144 62.5256 129.744 62.1506 129.744 61.6903C129.744 61.2259 130.144 60.8509 130.638 60.8509C131.129 60.8509 131.529 61.2259 131.529 61.6903C131.529 62.1506 131.129 62.5256 130.638 62.5256ZM129.863 69.5312V63.9233C129.863 63.6207 130.029 63.4545 130.332 63.4545H130.937C131.239 63.4545 131.406 63.6207 131.406 63.9233V69.5312C131.406 69.8338 131.239 70 130.937 70H130.332C130.029 70 129.863 69.8338 129.863 69.5312ZM137.159 65.2955C136.891 65.3253 136.746 65.206 136.588 64.9801C136.392 64.7159 136.056 64.5199 135.553 64.5199C134.909 64.5199 134.419 64.8267 134.424 65.2699C134.419 65.6491 134.684 65.8793 135.348 66.0284L136.465 66.267C137.701 66.5355 138.301 67.1065 138.306 68.0398C138.301 69.2798 137.147 70.1278 135.51 70.1278C134.138 70.1278 133.201 69.608 132.838 68.7045C132.715 68.402 132.894 68.1932 133.213 68.1634L133.797 68.108C134.07 68.0824 134.211 68.206 134.36 68.4446C134.577 68.7898 134.969 68.9645 135.506 68.9645C136.239 68.9645 136.725 68.6278 136.725 68.1804C136.725 67.8097 136.444 67.5668 135.843 67.4347L134.726 67.2003C133.469 66.9403 132.881 66.3097 132.885 65.3551C132.881 64.1449 133.955 63.3693 135.532 63.3693C136.823 63.3693 137.658 63.8722 138.016 64.6903C138.144 64.9929 137.973 65.206 137.65 65.2401L137.159 65.2955ZM145.823 64.179C145.823 64.4815 145.657 64.6477 145.354 64.6477H144.532V68.0312C144.532 68.6534 144.843 68.7898 145.23 68.7898H145.239C145.388 68.7898 145.712 68.8793 145.776 69.169L145.844 69.4844C145.908 69.7784 145.793 69.9957 145.495 70.0469C145.363 70.0682 145.209 70.0852 145.034 70.0895C143.875 70.1236 142.98 69.5185 142.989 68.2869V64.6477H142.529C142.226 64.6477 142.06 64.4815 142.06 64.179V63.9233C142.06 63.6207 142.226 63.4545 142.525 63.4545H142.989V62.3551C142.989 62.0526 143.155 61.8864 143.458 61.8864H144.063C144.365 61.8864 144.532 62.0526 144.532 62.3551V63.4545H145.354C145.657 63.4545 145.823 63.6207 145.823 63.9233V64.179ZM148.796 69.5312C148.796 69.8338 148.63 70 148.327 70H147.722C147.42 70 147.254 69.8338 147.254 69.5312V61.7415C147.254 61.4389 147.42 61.2727 147.722 61.2727H148.293C148.596 61.2727 148.762 61.4389 148.762 61.7415V64.5668H148.839C149.141 63.8253 149.781 63.3693 150.786 63.3693C152.146 63.3693 153.04 64.2514 153.04 65.8324V69.5312C153.04 69.8338 152.874 70 152.572 70H151.967C151.664 70 151.498 69.8338 151.498 69.5312V66.071C151.498 65.1889 151.021 64.6733 150.211 64.6733C149.384 64.6733 148.796 65.2188 148.796 66.1648V69.5312ZM157.511 70.1278C155.538 70.1278 154.332 68.8196 154.332 66.7656C154.332 64.7457 155.555 63.3693 157.43 63.3693C159.04 63.3693 160.421 64.3793 160.421 66.6761V66.6804C160.421 66.983 160.255 67.1491 159.952 67.1491H155.862C155.874 68.2699 156.535 68.9261 157.532 68.9261C158.043 68.9261 158.465 68.7557 158.725 68.4233C158.891 68.206 159.045 68.0952 159.309 68.125L159.829 68.1847C160.157 68.223 160.327 68.402 160.221 68.6449C159.82 69.5526 158.849 70.1278 157.511 70.1278ZM155.866 66.1094H158.942C158.934 65.2188 158.337 64.571 157.451 64.571C156.531 64.571 155.913 65.2741 155.866 66.1094ZM167.558 70.1278C165.64 70.1278 164.422 68.777 164.422 66.7528C164.422 64.7244 165.64 63.3693 167.558 63.3693C169.475 63.3693 170.694 64.7244 170.694 66.7528C170.694 68.777 169.475 70.1278 167.558 70.1278ZM165.985 66.7486C165.985 67.946 166.505 68.892 167.566 68.892C168.61 68.892 169.13 67.946 169.13 66.7486C169.13 65.5511 168.61 64.5923 167.566 64.5923C166.505 64.5923 165.985 65.5511 165.985 66.7486ZM173.546 69.5312C173.546 69.8338 173.38 70 173.077 70H172.472C172.17 70 172.004 69.8338 172.004 69.5312V63.9233C172.004 63.6207 172.17 63.4545 172.472 63.4545H173.009C173.312 63.4545 173.478 63.6207 173.478 63.9233V64.5668H173.555C173.853 63.8381 174.526 63.3693 175.506 63.3693C176.857 63.3693 177.752 64.2642 177.748 65.8324V69.5312C177.748 69.8338 177.582 70 177.279 70H176.674C176.371 70 176.205 69.8338 176.205 69.5312V66.071C176.205 65.1974 175.728 64.6733 174.931 64.6733C174.117 64.6733 173.546 65.2188 173.546 66.1648V69.5312ZM180.859 69.5312C180.859 69.8338 180.692 70 180.39 70H179.785C179.482 70 179.316 69.8338 179.316 69.5312V61.7415C179.316 61.4389 179.482 61.2727 179.785 61.2727H180.39C180.692 61.2727 180.859 61.4389 180.859 61.7415V69.5312ZM183.404 72.4545C183.208 72.4545 183.02 72.4375 182.854 72.4119C182.551 72.3608 182.449 72.1307 182.534 71.8366L182.628 71.5213C182.713 71.2358 182.901 71.1548 183.199 71.1847C183.634 71.223 183.949 71.0611 184.167 70.4901L184.299 70.1364L182.117 63.9915C182.002 63.6676 182.151 63.4545 182.496 63.4545H183.152C183.425 63.4545 183.6 63.5824 183.681 63.8466L185.07 68.3977H185.138L186.532 63.8466C186.613 63.5824 186.787 63.4545 187.06 63.4545H187.721C188.066 63.4545 188.215 63.6676 188.1 63.9915L185.671 70.7926C185.3 71.8366 184.605 72.4545 183.404 72.4545ZM192.336 63.9233C192.336 63.6207 192.502 63.4545 192.804 63.4545H193.384C193.686 63.4545 193.853 63.6207 193.853 63.9233V64.5369H193.942C194.176 64.0639 194.658 63.3693 195.813 63.3693C197.326 63.3693 198.515 64.554 198.515 66.7358C198.515 68.892 197.36 70.1151 195.817 70.1151C194.692 70.1151 194.185 69.446 193.942 68.9688H193.878V71.9858C193.878 72.2884 193.712 72.4545 193.409 72.4545H192.804C192.502 72.4545 192.336 72.2884 192.336 71.9858V63.9233ZM193.848 66.7273C193.848 67.9972 194.402 68.8494 195.387 68.8494C196.405 68.8494 196.942 67.9545 196.942 66.7273C196.942 65.5085 196.414 64.6349 195.387 64.6349C194.394 64.6349 193.848 65.4574 193.848 66.7273ZM200.611 62.5256C200.117 62.5256 199.716 62.1506 199.716 61.6903C199.716 61.2259 200.117 60.8509 200.611 60.8509C201.101 60.8509 201.502 61.2259 201.502 61.6903C201.502 62.1506 201.101 62.5256 200.611 62.5256ZM199.836 69.5312V63.9233C199.836 63.6207 200.002 63.4545 200.304 63.4545H200.909C201.212 63.4545 201.378 63.6207 201.378 63.9233V69.5312C201.378 69.8338 201.212 70 200.909 70H200.304C200.002 70 199.836 69.8338 199.836 69.5312ZM205.862 70.1278C203.889 70.1278 202.683 68.8196 202.683 66.7656C202.683 64.7457 203.906 63.3693 205.781 63.3693C207.392 63.3693 208.773 64.3793 208.773 66.6761V66.6804C208.773 66.983 208.607 67.1491 208.304 67.1491H204.213C204.226 68.2699 204.886 68.9261 205.884 68.9261C206.395 68.9261 206.817 68.7557 207.077 68.4233C207.243 68.206 207.396 68.0952 207.661 68.125L208.18 68.1847C208.509 68.223 208.679 68.402 208.572 68.6449C208.172 69.5526 207.2 70.1278 205.862 70.1278ZM204.217 66.1094H207.294C207.286 65.2188 206.689 64.571 205.803 64.571C204.882 64.571 204.264 65.2741 204.217 66.1094ZM212.933 70.1278C210.977 70.1278 209.797 68.7344 209.797 66.7528C209.797 64.7543 211.007 63.3693 212.924 63.3693C214.322 63.3693 215.349 64.0852 215.652 65.2145C215.737 65.5298 215.545 65.7216 215.225 65.7216H214.667C214.395 65.7216 214.258 65.5895 214.139 65.3381C213.93 64.9077 213.525 64.6136 212.946 64.6136C211.995 64.6136 211.36 65.4062 211.36 66.7273C211.36 68.0653 211.983 68.8707 212.946 68.8707C213.487 68.8707 213.917 68.6151 214.139 68.1506C214.258 67.8949 214.399 67.7628 214.672 67.7628H215.225C215.549 67.7628 215.733 67.929 215.669 68.2017C215.392 69.3523 214.399 70.1278 212.933 70.1278ZM219.901 70.1278C217.928 70.1278 216.722 68.8196 216.722 66.7656C216.722 64.7457 217.945 63.3693 219.82 63.3693C221.431 63.3693 222.812 64.3793 222.812 66.6761V66.6804C222.812 66.983 222.646 67.1491 222.343 67.1491H218.252C218.265 68.2699 218.925 68.9261 219.923 68.9261C220.434 68.9261 220.856 68.7557 221.116 68.4233C221.282 68.206 221.435 68.0952 221.7 68.125L222.219 68.1847C222.548 68.223 222.718 68.402 222.612 68.6449C222.211 69.5526 221.239 70.1278 219.901 70.1278ZM218.256 66.1094H221.333C221.325 65.2188 220.728 64.571 219.842 64.571C218.921 64.571 218.303 65.2741 218.256 66.1094ZM229.949 70.1278C228.031 70.1278 226.812 68.777 226.812 66.7528C226.812 64.7244 228.031 63.3693 229.949 63.3693C231.866 63.3693 233.085 64.7244 233.085 66.7528C233.085 68.777 231.866 70.1278 229.949 70.1278ZM228.376 66.7486C228.376 67.946 228.896 68.892 229.957 68.892C231.001 68.892 231.521 67.946 231.521 66.7486C231.521 65.5511 231.001 64.5923 229.957 64.5923C228.896 64.5923 228.376 65.5511 228.376 66.7486ZM237.71 64.179C237.71 64.4815 237.543 64.6477 237.241 64.6477H236.35V69.5312C236.35 69.8338 236.184 70 235.881 70H235.276C234.974 70 234.808 69.8338 234.808 69.5312V64.6477H234.309C234.006 64.6477 233.84 64.4815 233.84 64.179V63.9233C233.84 63.6207 234.006 63.4545 234.309 63.4545H234.808V62.8366C234.808 61.5156 235.715 60.8636 236.853 60.8636C237.121 60.8636 237.369 60.8935 237.573 60.9276C237.871 60.983 237.982 61.2003 237.906 61.4986L237.829 61.7969C237.756 62.0824 237.62 62.2017 237.433 62.1676C237.343 62.1506 237.245 62.142 237.138 62.142C236.563 62.142 236.35 62.4276 236.35 62.9389V63.4545H237.241C237.543 63.4545 237.71 63.6207 237.71 63.9233V64.179ZM245.163 64.179C245.163 64.4815 244.996 64.6477 244.694 64.6477H243.871V68.0312C243.871 68.6534 244.183 68.7898 244.57 68.7898H244.579C244.728 68.7898 245.052 68.8793 245.116 69.169L245.184 69.4844C245.248 69.7784 245.133 69.9957 244.835 70.0469C244.702 70.0682 244.549 70.0852 244.374 70.0895C243.215 70.1236 242.32 69.5185 242.329 68.2869V64.6477H241.869C241.566 64.6477 241.4 64.4815 241.4 64.179V63.9233C241.4 63.6207 241.566 63.4545 241.864 63.4545H242.329V62.3551C242.329 62.0526 242.495 61.8864 242.798 61.8864H243.403C243.705 61.8864 243.871 62.0526 243.871 62.3551V63.4545H244.694C244.996 63.4545 245.163 63.6207 245.163 63.9233V64.179ZM249.28 70.1278C247.307 70.1278 246.101 68.8196 246.101 66.7656C246.101 64.7457 247.324 63.3693 249.199 63.3693C250.81 63.3693 252.191 64.3793 252.191 66.6761V66.6804C252.191 66.983 252.025 67.1491 251.722 67.1491H247.631C247.644 68.2699 248.304 68.9261 249.301 68.9261C249.813 68.9261 250.235 68.7557 250.495 68.4233C250.661 68.206 250.814 68.0952 251.078 68.125L251.598 68.1847C251.926 68.223 252.097 68.402 251.99 68.6449C251.59 69.5526 250.618 70.1278 249.28 70.1278ZM247.635 66.1094H250.712C250.703 65.2188 250.107 64.571 249.221 64.571C248.3 64.571 247.682 65.2741 247.635 66.1094ZM256.351 70.1278C254.395 70.1278 253.214 68.7344 253.214 66.7528C253.214 64.7543 254.425 63.3693 256.342 63.3693C257.74 63.3693 258.767 64.0852 259.07 65.2145C259.155 65.5298 258.963 65.7216 258.643 65.7216H258.085C257.812 65.7216 257.676 65.5895 257.557 65.3381C257.348 64.9077 256.943 64.6136 256.364 64.6136C255.413 64.6136 254.778 65.4062 254.778 66.7273C254.778 68.0653 255.401 68.8707 256.364 68.8707C256.905 68.8707 257.335 68.6151 257.557 68.1506C257.676 67.8949 257.817 67.7628 258.089 67.7628H258.643C258.967 67.7628 259.151 67.929 259.087 68.2017C258.81 69.3523 257.817 70.1278 256.351 70.1278ZM261.964 69.5312C261.964 69.8338 261.798 70 261.495 70H260.89C260.588 70 260.422 69.8338 260.422 69.5312V61.7415C260.422 61.4389 260.588 61.2727 260.89 61.2727H261.461C261.764 61.2727 261.93 61.4389 261.93 61.7415V64.5668H262.007C262.309 63.8253 262.949 63.3693 263.954 63.3693C265.314 63.3693 266.208 64.2514 266.208 65.8324V69.5312C266.208 69.8338 266.042 70 265.74 70H265.135C264.832 70 264.666 69.8338 264.666 69.5312V66.071C264.666 65.1889 264.189 64.6733 263.379 64.6733C262.552 64.6733 261.964 65.2188 261.964 66.1648V69.5312ZM269.324 69.5312C269.324 69.8338 269.157 70 268.855 70H268.25C267.947 70 267.781 69.8338 267.781 69.5312V63.9233C267.781 63.6207 267.947 63.4545 268.25 63.4545H268.787C269.089 63.4545 269.255 63.6207 269.255 63.9233V64.5668H269.332C269.63 63.8381 270.304 63.3693 271.284 63.3693C272.635 63.3693 273.529 64.2642 273.525 65.8324V69.5312C273.525 69.8338 273.359 70 273.056 70H272.451C272.149 70 271.983 69.8338 271.983 69.5312V66.071C271.983 65.1974 271.505 64.6733 270.708 64.6733C269.895 64.6733 269.324 65.2188 269.324 66.1648V69.5312ZM277.949 70.1278C276.031 70.1278 274.812 68.777 274.812 66.7528C274.812 64.7244 276.031 63.3693 277.949 63.3693C279.866 63.3693 281.085 64.7244 281.085 66.7528C281.085 68.777 279.866 70.1278 277.949 70.1278ZM276.376 66.7486C276.376 67.946 276.896 68.892 277.957 68.892C279.001 68.892 279.521 67.946 279.521 66.7486C279.521 65.5511 279.001 64.5923 277.957 64.5923C276.896 64.5923 276.376 65.5511 276.376 66.7486ZM283.937 69.5312C283.937 69.8338 283.771 70 283.468 70H282.863C282.56 70 282.394 69.8338 282.394 69.5312V61.7415C282.394 61.4389 282.56 61.2727 282.863 61.2727H283.468C283.771 61.2727 283.937 61.4389 283.937 61.7415V69.5312ZM288.378 70.1278C286.461 70.1278 285.242 68.777 285.242 66.7528C285.242 64.7244 286.461 63.3693 288.378 63.3693C290.296 63.3693 291.515 64.7244 291.515 66.7528C291.515 68.777 290.296 70.1278 288.378 70.1278ZM286.806 66.7486C286.806 67.946 287.326 68.892 288.387 68.892C289.431 68.892 289.951 67.946 289.951 66.7486C289.951 65.5511 289.431 64.5923 288.387 64.5923C287.326 64.5923 286.806 65.5511 286.806 66.7486ZM295.67 72.5909C294.298 72.5909 293.416 72.0923 292.99 71.402C292.824 71.125 292.969 70.8906 293.284 70.8139L293.783 70.6946C294.047 70.6307 294.209 70.7244 294.388 70.929C294.631 71.1974 295.031 71.4233 295.696 71.4233C296.574 71.4233 297.213 71.027 297.213 70.0639V68.8239H297.136C296.898 69.3054 296.374 69.9062 295.253 69.9062C293.744 69.9062 292.555 68.8409 292.555 66.706C292.555 64.554 293.744 63.3693 295.257 63.3693C296.412 63.3693 296.902 64.0639 297.136 64.5369H297.222V63.9233C297.222 63.6207 297.388 63.4545 297.69 63.4545H298.274C298.577 63.4545 298.743 63.6207 298.743 63.9233V70.1065C298.743 71.7812 297.439 72.5909 295.67 72.5909ZM294.128 66.6974C294.128 67.9034 294.665 68.696 295.683 68.696C296.668 68.696 297.222 67.946 297.222 66.6974C297.222 65.4574 296.676 64.6349 295.683 64.6349C294.656 64.6349 294.128 65.5085 294.128 66.6974ZM301.283 72.4545C301.087 72.4545 300.899 72.4375 300.733 72.4119C300.43 72.3608 300.328 72.1307 300.413 71.8366L300.507 71.5213C300.592 71.2358 300.78 71.1548 301.078 71.1847C301.513 71.223 301.828 71.0611 302.045 70.4901L302.178 70.1364L299.996 63.9915C299.881 63.6676 300.03 63.4545 300.375 63.4545H301.031C301.304 63.4545 301.479 63.5824 301.56 63.8466L302.949 68.3977H303.017L304.411 63.8466C304.491 63.5824 304.666 63.4545 304.939 63.4545H305.599C305.945 63.4545 306.094 63.6676 305.979 63.9915L303.55 70.7926C303.179 71.8366 302.484 72.4545 301.283 72.4545ZM311.173 72.4545C310.977 72.4545 310.79 72.4375 310.624 72.4119C310.321 72.3608 310.219 72.1307 310.304 71.8366L310.398 71.5213C310.483 71.2358 310.67 71.1548 310.969 71.1847C311.403 71.223 311.719 71.0611 311.936 70.4901L312.068 70.1364L309.886 63.9915C309.771 63.6676 309.92 63.4545 310.266 63.4545H310.922C311.195 63.4545 311.369 63.5824 311.45 63.8466L312.839 68.3977H312.908L314.301 63.8466C314.382 63.5824 314.557 63.4545 314.83 63.4545H315.49C315.835 63.4545 315.984 63.6676 315.869 63.9915L313.44 70.7926C313.07 71.8366 312.375 72.4545 311.173 72.4545ZM319.761 70.1278C317.843 70.1278 316.625 68.777 316.625 66.7528C316.625 64.7244 317.843 63.3693 319.761 63.3693C321.679 63.3693 322.897 64.7244 322.897 66.7528C322.897 68.777 321.679 70.1278 319.761 70.1278ZM318.189 66.7486C318.189 67.946 318.708 68.892 319.77 68.892C320.814 68.892 321.333 67.946 321.333 66.7486C321.333 65.5511 320.814 64.5923 319.77 64.5923C318.708 64.5923 318.189 65.5511 318.189 66.7486ZM328.379 63.9233C328.379 63.6207 328.545 63.4545 328.847 63.4545H329.452C329.755 63.4545 329.921 63.6207 329.921 63.9233V69.5312C329.921 69.8338 329.755 70 329.452 70H328.894C328.592 70 328.425 69.8338 328.425 69.5312V68.8366H328.357C328.059 69.5696 327.369 70.0852 326.388 70.0852C325.102 70.0852 324.207 69.1946 324.207 67.6222V63.9233C324.207 63.6207 324.373 63.4545 324.675 63.4545H325.281C325.583 63.4545 325.749 63.6207 325.749 63.9233V67.3835C325.749 68.2145 326.244 68.7386 326.985 68.7386C327.667 68.7386 328.379 68.2443 328.379 67.2472V63.9233ZM334.552 61.7415C334.552 61.4389 334.718 61.2727 335.021 61.2727H335.626C335.929 61.2727 336.095 61.4389 336.095 61.7415V64.5369H336.159C336.393 64.0639 336.875 63.3693 338.029 63.3693C339.542 63.3693 340.731 64.554 340.731 66.7358C340.731 68.892 339.576 70.1151 338.034 70.1151C336.909 70.1151 336.402 69.446 336.159 68.9688H336.069V69.5312C336.069 69.8338 335.903 70 335.6 70H335.021C334.718 70 334.552 69.8338 334.552 69.5312V61.7415ZM336.065 66.7273C336.065 67.9972 336.619 68.8494 337.603 68.8494C338.622 68.8494 339.159 67.9545 339.159 66.7273C339.159 65.5085 338.63 64.6349 337.603 64.6349C336.61 64.6349 336.065 65.4574 336.065 66.7273ZM344.898 70.1278C342.98 70.1278 341.761 68.777 341.761 66.7528C341.761 64.7244 342.98 63.3693 344.898 63.3693C346.815 63.3693 348.034 64.7244 348.034 66.7528C348.034 68.777 346.815 70.1278 344.898 70.1278ZM343.325 66.7486C343.325 67.946 343.845 68.892 344.906 68.892C345.95 68.892 346.47 67.946 346.47 66.7486C346.47 65.5511 345.95 64.5923 344.906 64.5923C343.845 64.5923 343.325 65.5511 343.325 66.7486ZM353.515 63.9233C353.515 63.6207 353.681 63.4545 353.984 63.4545H354.589C354.892 63.4545 355.058 63.6207 355.058 63.9233V69.5312C355.058 69.8338 354.892 70 354.589 70H354.031C353.728 70 353.562 69.8338 353.562 69.5312V68.8366H353.494C353.196 69.5696 352.505 70.0852 351.525 70.0852C350.238 70.0852 349.343 69.1946 349.343 67.6222V63.9233C349.343 63.6207 349.51 63.4545 349.812 63.4545H350.417C350.72 63.4545 350.886 63.6207 350.886 63.9233V67.3835C350.886 68.2145 351.38 68.7386 352.122 68.7386C352.804 68.7386 353.515 68.2443 353.515 67.2472V63.9233ZM359.491 72.5909C358.119 72.5909 357.237 72.0923 356.81 71.402C356.644 71.125 356.789 70.8906 357.104 70.8139L357.603 70.6946C357.867 70.6307 358.029 70.7244 358.208 70.929C358.451 71.1974 358.852 71.4233 359.516 71.4233C360.394 71.4233 361.033 71.027 361.033 70.0639V68.8239H360.957C360.718 69.3054 360.194 69.9062 359.073 69.9062C357.565 69.9062 356.376 68.8409 356.376 66.706C356.376 64.554 357.565 63.3693 359.077 63.3693C360.232 63.3693 360.722 64.0639 360.957 64.5369H361.042V63.9233C361.042 63.6207 361.208 63.4545 361.511 63.4545H362.094C362.397 63.4545 362.563 63.6207 362.563 63.9233V70.1065C362.563 71.7812 361.259 72.5909 359.491 72.5909ZM357.948 66.6974C357.948 67.9034 358.485 68.696 359.504 68.696C360.488 68.696 361.042 67.946 361.042 66.6974C361.042 65.4574 360.496 64.6349 359.504 64.6349C358.477 64.6349 357.948 65.5085 357.948 66.6974ZM365.687 69.5312C365.687 69.8338 365.521 70 365.218 70H364.613C364.31 70 364.144 69.8338 364.144 69.5312V61.7415C364.144 61.4389 364.31 61.2727 364.613 61.2727H365.184C365.487 61.2727 365.653 61.4389 365.653 61.7415V64.5668H365.729C366.032 63.8253 366.671 63.3693 367.677 63.3693C369.036 63.3693 369.931 64.2514 369.931 65.8324V69.5312C369.931 69.8338 369.765 70 369.462 70H368.857C368.555 70 368.388 69.8338 368.388 69.5312V66.071C368.388 65.1889 367.911 64.6733 367.102 64.6733C366.275 64.6733 365.687 65.2188 365.687 66.1648V69.5312ZM374.772 64.179C374.772 64.4815 374.606 64.6477 374.303 64.6477H373.481V68.0312C373.481 68.6534 373.792 68.7898 374.18 68.7898H374.188C374.337 68.7898 374.661 68.8793 374.725 69.169L374.793 69.4844C374.857 69.7784 374.742 69.9957 374.444 70.0469C374.312 70.0682 374.158 70.0852 373.984 70.0895C372.825 70.1236 371.93 69.5185 371.938 68.2869V64.6477H371.478C371.175 64.6477 371.009 64.4815 371.009 64.179V63.9233C371.009 63.6207 371.175 63.4545 371.474 63.4545H371.938V62.3551C371.938 62.0526 372.104 61.8864 372.407 61.8864H373.012C373.315 61.8864 373.481 62.0526 373.481 62.3551V63.4545H374.303C374.606 63.4545 374.772 63.6207 374.772 63.9233V64.179ZM34.9602 86.2955C34.6918 86.3253 34.5469 86.206 34.3892 85.9801C34.1932 85.7159 33.8565 85.5199 33.3537 85.5199C32.7102 85.5199 32.2202 85.8267 32.2244 86.2699C32.2202 86.6491 32.4844 86.8793 33.1491 87.0284L34.2656 87.267C35.5014 87.5355 36.1023 88.1065 36.1065 89.0398C36.1023 90.2798 34.9474 91.1278 33.3111 91.1278C31.9389 91.1278 31.0014 90.608 30.6392 89.7045C30.5156 89.402 30.6946 89.1932 31.0142 89.1634L31.598 89.108C31.8707 89.0824 32.0114 89.206 32.1605 89.4446C32.3778 89.7898 32.7699 89.9645 33.3068 89.9645C34.0398 89.9645 34.5256 89.6278 34.5256 89.1804C34.5256 88.8097 34.2443 88.5668 33.6435 88.4347L32.527 88.2003C31.2699 87.9403 30.6818 87.3097 30.6861 86.3551C30.6818 85.1449 31.7557 84.3693 33.3324 84.3693C34.6236 84.3693 35.4588 84.8722 35.8168 85.6903C35.9446 85.9929 35.7741 86.206 35.4503 86.2401L34.9602 86.2955ZM37.3786 84.9233C37.3786 84.6207 37.5447 84.4545 37.8473 84.4545H38.4268C38.7294 84.4545 38.8956 84.6207 38.8956 84.9233V85.5369H38.9851C39.2195 85.0639 39.701 84.3693 40.8558 84.3693C42.3686 84.3693 43.5575 85.554 43.5575 87.7358C43.5575 89.892 42.4027 91.1151 40.8601 91.1151C39.7351 91.1151 39.228 90.446 38.9851 89.9688H38.9212V92.9858C38.9212 93.2884 38.755 93.4545 38.4524 93.4545H37.8473C37.5447 93.4545 37.3786 93.2884 37.3786 92.9858V84.9233ZM38.8913 87.7273C38.8913 88.9972 39.4453 89.8494 40.4297 89.8494C41.4482 89.8494 41.9851 88.9545 41.9851 87.7273C41.9851 86.5085 41.4567 85.6349 40.4297 85.6349C39.4368 85.6349 38.8913 86.4574 38.8913 87.7273ZM47.7763 91.1278C45.8033 91.1278 44.5973 89.8196 44.5973 87.7656C44.5973 85.7457 45.8203 84.3693 47.6953 84.3693C49.3061 84.3693 50.6868 85.3793 50.6868 87.6761V87.6804C50.6868 87.983 50.5206 88.1491 50.218 88.1491H46.1271C46.1399 89.2699 46.8004 89.9261 47.7976 89.9261C48.3089 89.9261 48.7308 89.7557 48.9908 89.4233C49.157 89.206 49.3104 89.0952 49.5746 89.125L50.0945 89.1847C50.4226 89.223 50.593 89.402 50.4865 89.6449C50.0859 90.5526 49.1143 91.1278 47.7763 91.1278ZM46.1314 87.1094H49.2081C49.1996 86.2188 48.603 85.571 47.7166 85.571C46.7962 85.571 46.1783 86.2741 46.1314 87.1094ZM54.8469 91.1278C52.891 91.1278 51.7106 89.7344 51.7106 87.7528C51.7106 85.7543 52.9208 84.3693 54.8384 84.3693C56.2362 84.3693 57.2631 85.0852 57.5657 86.2145C57.6509 86.5298 57.4592 86.7216 57.1396 86.7216H56.5813C56.3086 86.7216 56.1722 86.5895 56.0529 86.3381C55.8441 85.9077 55.4393 85.6136 54.8597 85.6136C53.9094 85.6136 53.2745 86.4062 53.2745 87.7273C53.2745 89.0653 53.8967 89.8707 54.8597 89.8707C55.4009 89.8707 55.8313 89.6151 56.0529 89.1506C56.1722 88.8949 56.3129 88.7628 56.5856 88.7628H57.1396C57.4634 88.7628 57.6467 88.929 57.5827 89.2017C57.3058 90.3523 56.3129 91.1278 54.8469 91.1278ZM59.6932 83.5256C59.1989 83.5256 58.7983 83.1506 58.7983 82.6903C58.7983 82.2259 59.1989 81.8509 59.6932 81.8509C60.1832 81.8509 60.5838 82.2259 60.5838 82.6903C60.5838 83.1506 60.1832 83.5256 59.6932 83.5256ZM58.9176 90.5312V84.9233C58.9176 84.6207 59.0838 84.4545 59.3864 84.4545H59.9915C60.294 84.4545 60.4602 84.6207 60.4602 84.9233V90.5312C60.4602 90.8338 60.294 91 59.9915 91H59.3864C59.0838 91 58.9176 90.8338 58.9176 90.5312ZM65.3619 85.179C65.3619 85.4815 65.1957 85.6477 64.8931 85.6477H64.0025V90.5312C64.0025 90.8338 63.8363 91 63.5337 91H62.9286C62.6261 91 62.4599 90.8338 62.4599 90.5312V85.6477H61.9613C61.6587 85.6477 61.4925 85.4815 61.4925 85.179V84.9233C61.4925 84.6207 61.6587 84.4545 61.9613 84.4545H62.4599V83.8366C62.4599 82.5156 63.3675 81.8636 64.5053 81.8636C64.7738 81.8636 65.021 81.8935 65.2255 81.9276C65.5238 81.983 65.6346 82.2003 65.5579 82.4986L65.4812 82.7969C65.4087 83.0824 65.2724 83.2017 65.0849 83.1676C64.9954 83.1506 64.8974 83.142 64.7908 83.142C64.2156 83.142 64.0025 83.4276 64.0025 83.9389V84.4545H64.8931C65.1957 84.4545 65.3619 84.6207 65.3619 84.9233V85.179ZM67.3455 83.5256C66.8512 83.5256 66.4506 83.1506 66.4506 82.6903C66.4506 82.2259 66.8512 81.8509 67.3455 81.8509C67.8356 81.8509 68.2362 82.2259 68.2362 82.6903C68.2362 83.1506 67.8356 83.5256 67.3455 83.5256ZM66.57 90.5312V84.9233C66.57 84.6207 66.7362 84.4545 67.0387 84.4545H67.6438C67.9464 84.4545 68.1126 84.6207 68.1126 84.9233V90.5312C68.1126 90.8338 67.9464 91 67.6438 91H67.0387C66.7362 91 66.57 90.8338 66.57 90.5312ZM72.554 91.1278C70.598 91.1278 69.4176 89.7344 69.4176 87.7528C69.4176 85.7543 70.6278 84.3693 72.5455 84.3693C73.9432 84.3693 74.9702 85.0852 75.2727 86.2145C75.358 86.5298 75.1662 86.7216 74.8466 86.7216H74.2884C74.0156 86.7216 73.8793 86.5895 73.7599 86.3381C73.5511 85.9077 73.1463 85.6136 72.5668 85.6136C71.6165 85.6136 70.9815 86.4062 70.9815 87.7273C70.9815 89.0653 71.6037 89.8707 72.5668 89.8707C73.108 89.8707 73.5384 89.6151 73.7599 89.1506C73.8793 88.8949 74.0199 88.7628 74.2926 88.7628H74.8466C75.1705 88.7628 75.3537 88.929 75.2898 89.2017C75.0128 90.3523 74.0199 91.1278 72.554 91.1278ZM78.5082 91.1321C77.2596 91.1321 76.3178 90.4503 76.3178 89.1634C76.3178 87.6889 77.5323 87.3097 78.8022 87.1733C79.957 87.0497 80.4215 87.0284 80.4215 86.5852V86.5597C80.4215 85.9162 80.0295 85.5497 79.3136 85.5497C78.7638 85.5497 78.3846 85.7543 78.1587 86.0355C77.9925 86.2528 77.8434 86.3636 77.5749 86.3253L77.0593 86.2528C76.7312 86.206 76.5735 85.9801 76.7312 85.6818C77.1957 84.8125 78.1332 84.3693 79.305 84.3693C80.5536 84.3693 81.9641 84.8892 81.9641 86.6193V90.5312C81.9641 90.8338 81.7979 91 81.4954 91H80.9499C80.6474 91 80.4812 90.8381 80.4812 90.5483V90.1009H80.43C80.1488 90.6506 79.5352 91.1321 78.5082 91.1321ZM77.805 89.1378C77.805 89.7045 78.2653 89.9986 78.9087 89.9986C79.8377 89.9986 80.4258 89.3807 80.4258 88.652V87.8807C80.2255 88.0426 79.4158 88.1449 79.011 88.2003C78.3207 88.2983 77.805 88.5455 77.805 89.1378ZM85.0579 90.5312C85.0579 90.8338 84.8917 91 84.5891 91H83.984C83.6815 91 83.5153 90.8338 83.5153 90.5312V82.7415C83.5153 82.4389 83.6815 82.2727 83.984 82.2727H84.5891C84.8917 82.2727 85.0579 82.4389 85.0579 82.7415V90.5312ZM88.1868 90.5312C88.1868 90.8338 88.0206 91 87.718 91H87.1129C86.8104 91 86.6442 90.8338 86.6442 90.5312V82.7415C86.6442 82.4389 86.8104 82.2727 87.1129 82.2727H87.718C88.0206 82.2727 88.1868 82.4389 88.1868 82.7415V90.5312ZM90.7319 93.4545C90.5359 93.4545 90.3484 93.4375 90.1822 93.4119C89.8796 93.3608 89.7773 93.1307 89.8626 92.8366L89.9563 92.5213C90.0415 92.2358 90.229 92.1548 90.5273 92.1847C90.962 92.223 91.2773 92.0611 91.4947 91.4901L91.6268 91.1364L89.445 84.9915C89.3299 84.6676 89.479 84.4545 89.8242 84.4545H90.4805C90.7532 84.4545 90.9279 84.5824 91.0089 84.8466L92.3981 89.3977H92.4663L93.8597 84.8466C93.9407 84.5824 94.1154 84.4545 94.3881 84.4545H95.0487C95.3938 84.4545 95.543 84.6676 95.4279 84.9915L92.9989 91.7926C92.6282 92.8366 91.9336 93.4545 90.7319 93.4545ZM102.932 85.179C102.932 85.4815 102.766 85.6477 102.463 85.6477H101.641V89.0312C101.641 89.6534 101.952 89.7898 102.34 89.7898H102.348C102.498 89.7898 102.821 89.8793 102.885 90.169L102.953 90.4844C103.017 90.7784 102.902 90.9957 102.604 91.0469C102.472 91.0682 102.319 91.0852 102.144 91.0895C100.985 91.1236 100.09 90.5185 100.098 89.2869V85.6477H99.6381C99.3356 85.6477 99.1694 85.4815 99.1694 85.179V84.9233C99.1694 84.6207 99.3356 84.4545 99.6339 84.4545H100.098V83.3551C100.098 83.0526 100.265 82.8864 100.567 82.8864H101.172C101.475 82.8864 101.641 83.0526 101.641 83.3551V84.4545H102.463C102.766 84.4545 102.932 84.6207 102.932 84.9233V85.179ZM107.007 91.1278C105.089 91.1278 103.871 89.777 103.871 87.7528C103.871 85.7244 105.089 84.3693 107.007 84.3693C108.925 84.3693 110.143 85.7244 110.143 87.7528C110.143 89.777 108.925 91.1278 107.007 91.1278ZM105.435 87.7486C105.435 88.946 105.955 89.892 107.016 89.892C108.06 89.892 108.58 88.946 108.58 87.7486C108.58 86.5511 108.06 85.5923 107.016 85.5923C105.955 85.5923 105.435 86.5511 105.435 87.7486ZM115.972 90.5312C115.972 90.8338 115.806 91 115.503 91H114.898C114.596 91 114.429 90.8338 114.429 90.5312V82.7415C114.429 82.4389 114.596 82.2727 114.898 82.2727H115.469C115.772 82.2727 115.938 82.4389 115.938 82.7415V85.5668H116.015C116.317 84.8253 116.956 84.3693 117.962 84.3693C119.321 84.3693 120.216 85.2514 120.216 86.8324V90.5312C120.216 90.8338 120.05 91 119.748 91H119.142C118.84 91 118.674 90.8338 118.674 90.5312V87.071C118.674 86.1889 118.196 85.6733 117.387 85.6733C116.56 85.6733 115.972 86.2188 115.972 87.1648V90.5312ZM123.672 91.1321C122.424 91.1321 121.482 90.4503 121.482 89.1634C121.482 87.6889 122.696 87.3097 123.966 87.1733C125.121 87.0497 125.586 87.0284 125.586 86.5852V86.5597C125.586 85.9162 125.194 85.5497 124.478 85.5497C123.928 85.5497 123.549 85.7543 123.323 86.0355C123.157 86.2528 123.007 86.3636 122.739 86.3253L122.223 86.2528C121.895 86.206 121.738 85.9801 121.895 85.6818C122.36 84.8125 123.297 84.3693 124.469 84.3693C125.718 84.3693 127.128 84.8892 127.128 86.6193V90.5312C127.128 90.8338 126.962 91 126.659 91H126.114C125.811 91 125.645 90.8381 125.645 90.5483V90.1009H125.594C125.313 90.6506 124.699 91.1321 123.672 91.1321ZM122.969 89.1378C122.969 89.7045 123.429 89.9986 124.073 89.9986C125.002 89.9986 125.59 89.3807 125.59 88.652V87.8807C125.39 88.0426 124.58 88.1449 124.175 88.2003C123.485 88.2983 122.969 88.5455 122.969 89.1378ZM131.948 85.179C131.948 85.4815 131.782 85.6477 131.479 85.6477H130.657V89.0312C130.657 89.6534 130.968 89.7898 131.355 89.7898H131.364C131.513 89.7898 131.837 89.8793 131.901 90.169L131.969 90.4844C132.033 90.7784 131.918 90.9957 131.62 91.0469C131.488 91.0682 131.334 91.0852 131.159 91.0895C130 91.1236 129.105 90.5185 129.114 89.2869V85.6477H128.654C128.351 85.6477 128.185 85.4815 128.185 85.179V84.9233C128.185 84.6207 128.351 84.4545 128.65 84.4545H129.114V83.3551C129.114 83.0526 129.28 82.8864 129.583 82.8864H130.188C130.49 82.8864 130.657 83.0526 130.657 83.3551V84.4545H131.479C131.782 84.4545 131.948 84.6207 131.948 84.9233V85.179ZM136.065 91.1278C134.092 91.1278 132.886 89.8196 132.886 87.7656C132.886 85.7457 134.109 84.3693 135.984 84.3693C137.595 84.3693 138.976 85.3793 138.976 87.6761V87.6804C138.976 87.983 138.81 88.1491 138.507 88.1491H134.416C134.429 89.2699 135.089 89.9261 136.087 89.9261C136.598 89.9261 137.02 89.7557 137.28 89.4233C137.446 89.206 137.599 89.0952 137.864 89.125L138.384 89.1847C138.712 89.223 138.882 89.402 138.776 89.6449C138.375 90.5526 137.403 91.1278 136.065 91.1278ZM134.42 87.1094H137.497C137.489 86.2188 136.892 85.571 136.006 85.571C135.085 85.571 134.467 86.2741 134.42 87.1094ZM141.231 91.0938C140.711 91.0938 140.289 90.6761 140.294 90.1562C140.289 89.6449 140.711 89.2273 141.231 89.2273C141.734 89.2273 142.164 89.6449 142.169 90.1562C142.164 90.6761 141.734 91.0938 141.231 91.0938Z" fill="black"/>
<path d="M343.776 122.199C343.776 121.96 343.848 121.79 344.018 121.619L346.805 118.888C347.666 118.014 348.109 117.494 348.109 116.766C348.109 115.943 347.491 115.436 346.661 115.436C345.945 115.436 345.438 115.815 345.28 116.446C345.207 116.732 345.075 116.885 344.786 116.885H344.21C343.899 116.885 343.712 116.71 343.763 116.399C343.98 115.018 345.126 114.153 346.682 114.153C348.438 114.153 349.626 115.223 349.626 116.685C349.626 117.669 349.158 118.462 347.462 120.089L345.957 121.619V121.679H349.29C349.592 121.679 349.759 121.845 349.759 122.148V122.531C349.759 122.834 349.592 123 349.29 123H344.244C343.942 123 343.776 122.834 343.776 122.531V122.199ZM352.788 122.531C352.788 122.834 352.622 123 352.32 123H351.714C351.412 123 351.246 122.834 351.246 122.531V114.741C351.246 114.439 351.412 114.273 351.714 114.273H352.286C352.588 114.273 352.754 114.439 352.754 114.741V117.567H352.831C353.134 116.825 353.773 116.369 354.778 116.369C356.138 116.369 357.033 117.251 357.033 118.832V122.531C357.033 122.834 356.866 123 356.564 123H355.959C355.656 123 355.49 122.834 355.49 122.531V119.071C355.49 118.189 355.013 117.673 354.203 117.673C353.376 117.673 352.788 118.219 352.788 119.165V122.531ZM358.605 116.923C358.605 116.621 358.771 116.455 359.074 116.455H359.632C359.935 116.455 360.101 116.621 360.101 116.923V117.545H360.169C360.408 116.787 361.034 116.361 361.784 116.361H361.895C362.189 116.374 362.338 116.557 362.338 116.851V117.32C362.338 117.639 362.21 117.784 361.984 117.754C361.865 117.741 361.737 117.733 361.622 117.733C360.774 117.733 360.148 118.321 360.148 119.152V122.531C360.148 122.834 359.982 123 359.679 123H359.074C358.771 123 358.605 122.834 358.605 122.531V116.923ZM367.531 118.295C367.262 118.325 367.117 118.206 366.96 117.98C366.763 117.716 366.427 117.52 365.924 117.52C365.281 117.52 364.79 117.827 364.795 118.27C364.79 118.649 365.055 118.879 365.719 119.028L366.836 119.267C368.072 119.536 368.673 120.107 368.677 121.04C368.673 122.28 367.518 123.128 365.881 123.128C364.509 123.128 363.572 122.608 363.21 121.705C363.086 121.402 363.265 121.193 363.585 121.163L364.168 121.108C364.441 121.082 364.582 121.206 364.731 121.445C364.948 121.79 365.34 121.964 365.877 121.964C366.61 121.964 367.096 121.628 367.096 121.18C367.096 120.81 366.815 120.567 366.214 120.435L365.097 120.2C363.84 119.94 363.252 119.31 363.256 118.355C363.252 117.145 364.326 116.369 365.903 116.369C367.194 116.369 368.029 116.872 368.387 117.69C368.515 117.993 368.344 118.206 368.021 118.24L367.531 118.295ZM374.809 123.132C373.56 123.132 372.619 122.45 372.619 121.163C372.619 119.689 373.833 119.31 375.103 119.173C376.258 119.05 376.722 119.028 376.722 118.585V118.56C376.722 117.916 376.33 117.55 375.614 117.55C375.065 117.55 374.685 117.754 374.46 118.036C374.293 118.253 374.144 118.364 373.876 118.325L373.36 118.253C373.032 118.206 372.874 117.98 373.032 117.682C373.496 116.812 374.434 116.369 375.606 116.369C376.854 116.369 378.265 116.889 378.265 118.619V122.531C378.265 122.834 378.099 123 377.796 123H377.251C376.948 123 376.782 122.838 376.782 122.548V122.101H376.731C376.45 122.651 375.836 123.132 374.809 123.132ZM374.106 121.138C374.106 121.705 374.566 121.999 375.21 121.999C376.138 121.999 376.727 121.381 376.727 120.652V119.881C376.526 120.043 375.717 120.145 375.312 120.2C374.621 120.298 374.106 120.545 374.106 121.138ZM382.663 125.591C381.29 125.591 380.408 125.092 379.982 124.402C379.816 124.125 379.961 123.891 380.276 123.814L380.775 123.695C381.039 123.631 381.201 123.724 381.38 123.929C381.623 124.197 382.023 124.423 382.688 124.423C383.566 124.423 384.205 124.027 384.205 123.064V121.824H384.129C383.89 122.305 383.366 122.906 382.245 122.906C380.737 122.906 379.548 121.841 379.548 119.706C379.548 117.554 380.737 116.369 382.249 116.369C383.404 116.369 383.894 117.064 384.129 117.537H384.214V116.923C384.214 116.621 384.38 116.455 384.683 116.455H385.266C385.569 116.455 385.735 116.621 385.735 116.923V123.107C385.735 124.781 384.431 125.591 382.663 125.591ZM381.12 119.697C381.12 120.903 381.657 121.696 382.675 121.696C383.66 121.696 384.214 120.946 384.214 119.697C384.214 118.457 383.668 117.635 382.675 117.635C381.648 117.635 381.12 118.509 381.12 119.697ZM390.171 123.128C388.254 123.128 387.035 121.777 387.035 119.753C387.035 117.724 388.254 116.369 390.171 116.369C392.089 116.369 393.308 117.724 393.308 119.753C393.308 121.777 392.089 123.128 390.171 123.128ZM388.599 119.749C388.599 120.946 389.119 121.892 390.18 121.892C391.224 121.892 391.744 120.946 391.744 119.749C391.744 118.551 391.224 117.592 390.18 117.592C389.119 117.592 388.599 118.551 388.599 119.749Z" fill="#828181"/>
<path d="M37.3232 46.8537C33.152 46.8537 30.7905 44.522 30.7855 40.4702C30.7905 36.5128 33.1918 33.9723 37.3182 33.9723C41.1911 33.9723 43.3885 36.4979 43.3835 39.7642C43.3885 42.0362 42.777 43.9453 40.6392 44.0249C39.6349 44.0795 38.9787 43.6719 38.8594 42.9261H38.7997C38.5661 43.5178 37.6911 44.0199 36.5625 43.9652C34.9418 43.8906 33.7486 42.603 33.7486 40.4105C33.7486 38.2827 35.081 37.1442 36.468 36.9602C37.5469 36.8111 38.5014 37.2138 38.6605 37.6513H38.7301V37.6413C38.7301 37.2884 38.924 37.0945 39.277 37.0945H39.5703C39.9233 37.0945 40.1172 37.2884 40.1172 37.6413V41.8274C40.1222 42.3196 40.3707 42.6577 40.7933 42.6577C41.5888 42.6577 41.907 41.733 41.902 39.6797C41.907 36.8558 39.9332 35.3544 37.2834 35.3544C34.0369 35.3544 32.3366 37.4474 32.3366 40.4503C32.3366 43.6719 34.1165 45.4517 37.4077 45.4517C38.2379 45.4517 39.0682 45.2777 39.6449 45.1136C39.983 45.0142 40.2216 45.1286 40.331 45.4616L40.4155 45.7102C40.5249 46.0384 40.4801 46.2621 40.2812 46.3416C39.5852 46.6151 38.4268 46.8537 37.3232 46.8537ZM35.2351 40.3509C35.2401 41.4844 35.6776 42.5384 36.9751 42.5384C38.233 42.5384 38.7003 41.7976 38.6854 40.3459C38.6804 38.9936 38.223 38.3871 36.9851 38.3871C35.8714 38.3871 35.2401 39.2173 35.2351 40.3509ZM44.9956 44C44.5929 44 44.4139 43.7514 44.5481 43.3736L47.7598 34.2607C47.8642 33.9574 48.063 33.8182 48.3812 33.8182H49.7235C50.0417 33.8182 50.2406 33.9574 50.345 34.2607L53.5616 43.3736C53.6958 43.7514 53.5169 44 53.1142 44H52.2839C51.9657 44 51.7619 43.8558 51.6625 43.5526L50.9664 41.4893H47.1383L46.4473 43.5526C46.3478 43.8558 46.144 44 45.8258 44H44.9956ZM47.6355 40.0078H50.4693L49.0922 35.9062H49.0126L47.6355 40.0078ZM55.9368 35.2798C55.3601 35.2798 54.8928 34.8423 54.8928 34.3054C54.8928 33.7635 55.3601 33.326 55.9368 33.326C56.5085 33.326 56.9759 33.7635 56.9759 34.3054C56.9759 34.8423 56.5085 35.2798 55.9368 35.2798ZM53.8189 46.3118V45.919C53.8189 45.576 54.0078 45.4219 54.3509 45.3473C54.8778 45.233 55.0419 44.9148 55.0419 44.4126V36.9105C55.0419 36.5575 55.2358 36.3636 55.5888 36.3636H56.2947C56.6477 36.3636 56.8416 36.5575 56.8416 36.9105V44.4375C56.8416 46.0234 55.9418 46.804 54.3707 46.8636C54.0128 46.8736 53.8189 46.6648 53.8189 46.3118ZM60.8897 44.1541C59.4331 44.1541 58.3343 43.3587 58.3343 41.8572C58.3343 40.1371 59.7512 39.6946 61.2328 39.5355C62.5801 39.3913 63.122 39.3665 63.122 38.8494V38.8196C63.122 38.0689 62.6646 37.6413 61.8294 37.6413C61.188 37.6413 60.7456 37.88 60.4821 38.2081C60.2882 38.4616 60.1142 38.5909 59.801 38.5462L59.1994 38.4616C58.8166 38.407 58.6326 38.1435 58.8166 37.7955C59.3585 36.7812 60.4522 36.2642 61.8194 36.2642C63.2761 36.2642 64.9217 36.8707 64.9217 38.8892V43.4531C64.9217 43.8061 64.7278 44 64.3748 44H63.7385C63.3855 44 63.1916 43.8111 63.1916 43.473V42.951H63.1319C62.8038 43.5923 62.0879 44.1541 60.8897 44.1541ZM60.0694 41.8274C60.0694 42.4886 60.6064 42.8317 61.3571 42.8317C62.4409 42.8317 63.127 42.1108 63.127 41.2607V40.3608C62.8933 40.5497 61.9487 40.669 61.4764 40.7337C60.671 40.848 60.0694 41.1364 60.0694 41.8274ZM67.5765 46.8636C67.3478 46.8636 67.1291 46.8438 66.9352 46.8139C66.5822 46.7543 66.4629 46.4858 66.5623 46.1428L66.6717 45.7749C66.7711 45.4418 66.9899 45.3473 67.3379 45.3821C67.845 45.4268 68.2129 45.2379 68.4664 44.5717L68.6206 44.1591L66.0751 36.9901C65.9409 36.6122 66.1149 36.3636 66.5176 36.3636H67.2832C67.6014 36.3636 67.8052 36.5128 67.8997 36.821L69.5204 42.1307H69.6L71.2257 36.821C71.3201 36.5128 71.524 36.3636 71.8422 36.3636H72.6127C73.0154 36.3636 73.1895 36.6122 73.0552 36.9901L70.2214 44.9247C69.7889 46.1428 68.9785 46.8636 67.5765 46.8636ZM78.6458 43.4531C78.6458 43.8061 78.4519 44 78.0989 44H77.3482C76.9952 44 76.8013 43.8061 76.8013 43.4531V35.6129H76.7417L75.0215 36.7116C74.6486 36.9503 74.3603 36.7912 74.3603 36.3487V35.8714C74.3603 35.5781 74.4647 35.3793 74.7182 35.2152L76.5826 34.017C76.8063 33.8729 76.9952 33.8182 77.2587 33.8182H78.0989C78.4519 33.8182 78.6458 34.0121 78.6458 34.3651V43.4531Z" fill="#817F7F"/>
<path d="M49.7756 122.199C49.7756 121.96 49.848 121.79 50.0185 121.619L52.8054 118.888C53.6662 118.014 54.1094 117.494 54.1094 116.766C54.1094 115.943 53.4915 115.436 52.6605 115.436C51.9446 115.436 51.4375 115.815 51.2798 116.446C51.2074 116.732 51.0753 116.885 50.7855 116.885H50.2102C49.8991 116.885 49.7116 116.71 49.7628 116.399C49.9801 115.018 51.1264 114.153 52.6818 114.153C54.4375 114.153 55.6264 115.223 55.6264 116.685C55.6264 117.669 55.1577 118.462 53.4616 120.089L51.9574 121.619V121.679H55.2898C55.5923 121.679 55.7585 121.845 55.7585 122.148V122.531C55.7585 122.834 55.5923 123 55.2898 123H50.2443C49.9418 123 49.7756 122.834 49.7756 122.531V122.199ZM57.2457 114.741C57.2457 114.439 57.4119 114.273 57.7145 114.273H58.3196C58.6222 114.273 58.7884 114.439 58.7884 114.741V119.084H58.8949L61.017 116.71C61.179 116.527 61.3494 116.455 61.5923 116.455H62.2741C62.6832 116.455 62.8068 116.723 62.5341 117.03L60.5142 119.28L62.7855 122.429C63.0114 122.744 62.8835 123 62.4957 123H61.7116C61.4602 123 61.2898 122.911 61.1449 122.706L59.3509 120.2L58.7884 120.801V122.531C58.7884 122.834 58.6222 123 58.3196 123H57.7145C57.4119 123 57.2457 122.834 57.2457 122.531V114.741Z" fill="#817F7F"/>
</svg>
