<svg width="16" height="16" viewBox="0 0 16 16" fill="none" xmlns="http://www.w3.org/2000/svg">
<mask id="mask0_1502_250" style="mask-type:luminance" maskUnits="userSpaceOnUse" x="0" y="1" width="16" height="14">
<path d="M13.9999 2.6665H1.99992C1.82311 2.6665 1.65354 2.73674 1.52851 2.86177C1.40349 2.98679 1.33325 3.15636 1.33325 3.33317V12.6665C1.33325 12.8433 1.40349 13.0129 1.52851 13.1379C1.65354 13.2629 1.82311 13.3332 1.99992 13.3332H13.9999C14.1767 13.3332 14.3463 13.2629 14.4713 13.1379C14.5963 13.0129 14.6666 12.8433 14.6666 12.6665V3.33317C14.6666 3.15636 14.5963 2.98679 14.4713 2.86177C14.3463 2.73674 14.1767 2.6665 13.9999 2.6665Z" fill="white" stroke="white" stroke-width="2"/>
<path d="M7.99992 5.6665V10.3332M10.6666 7.99984V10.3332M5.33325 7.33317V10.3332" stroke="black" stroke-width="2" stroke-linecap="round"/>
</mask>
<g mask="url(#mask0_1502_250)">
<path d="M0 0H16V16H0V0Z" fill="#00D74C"/>
</g>
</svg>
