<svg width="54" height="54" viewBox="0 0 54 54" fill="none" xmlns="http://www.w3.org/2000/svg">
<path d="M27.8101 9C14.8051 9 5.94911 22.1782 10.8541 34.2225L12.9534 39.3705C13.045 39.595 13.0617 39.8431 13.0009 40.0779C12.9401 40.3127 12.805 40.5215 12.6159 40.6732L8.17661 44.235C7.99487 44.3808 7.86288 44.5795 7.79888 44.8035C7.73488 45.0275 7.74203 45.2659 7.81933 45.4857C7.89664 45.7055 8.04028 45.8959 8.23043 46.0306C8.42059 46.1653 8.64786 46.2375 8.88086 46.2375H26.4759C29.0563 46.2384 31.6116 45.7308 33.9958 44.7438C36.38 43.7568 38.5464 42.3097 40.3712 40.4851C42.1959 38.6606 43.6433 36.4944 44.6306 34.1103C45.6179 31.7262 46.1257 29.1709 46.1251 26.5905C46.1251 16.875 38.2501 9 28.5346 9H27.8101Z" fill="#6982FF"/>
<path d="M20.5986 20.7051C20.542 20.5635 20.5278 20.4077 20.5562 20.2378C20.5939 20.0584 20.6694 19.9215 20.7827 19.8271C21.4718 19.1758 22.3923 18.6707 23.5439 18.312C24.7051 17.9438 25.8709 17.7362 27.0415 17.689C28.4103 17.6323 29.6847 17.8589 30.8647 18.3687C32.0448 18.869 33.0029 19.6431 33.7393 20.6909C34.485 21.7293 34.8532 22.9329 34.8438 24.3018C34.8438 24.7643 34.7918 25.2033 34.688 25.6187C34.5841 26.034 34.4661 26.3927 34.334 26.6948C34.2018 26.9969 34.0083 27.299 33.7534 27.6011C33.4985 27.8937 33.2767 28.1297 33.0879 28.3091C32.8991 28.4884 32.6348 28.6867 32.2949 28.9038C31.9551 29.1209 31.6955 29.2767 31.5161 29.3711C31.3462 29.4655 31.0866 29.6024 30.7373 29.7817C30.388 29.9517 30.1615 30.0649 30.0576 30.1216C29.2741 30.5275 28.7502 30.924 28.4858 31.311C28.2026 31.717 27.8864 31.9199 27.5371 31.9199H24.1953C23.9121 31.9199 23.695 31.8397 23.5439 31.6792C23.3929 31.5187 23.3315 31.3016 23.3599 31.0278C23.4448 30.1121 23.6195 29.3475 23.8838 28.7339C24.1481 28.1108 24.4644 27.6341 24.8325 27.3037C25.2101 26.9733 25.583 26.709 25.9512 26.5107C26.3288 26.3031 26.73 26.0765 27.1548 25.8311C27.5796 25.5762 27.9194 25.2977 28.1743 24.9956C28.6935 24.3159 28.7785 23.759 28.4292 23.3247C28.0799 22.881 27.5418 22.6828 26.8149 22.73C25.8332 22.7772 24.7192 23.3294 23.4731 24.3867C23.2371 24.5944 23.0059 24.6982 22.7793 24.6982C22.4583 24.6982 22.2176 24.4858 22.0571 24.061L20.5986 20.7051ZM23.4873 38.3486C22.902 37.8011 22.6094 37.0789 22.6094 36.1821C22.6094 35.2853 22.902 34.5632 23.4873 34.0156C24.0726 33.4681 24.8514 33.1943 25.8237 33.1943C26.7961 33.1943 27.5749 33.4681 28.1602 34.0156C28.7454 34.5632 29.0381 35.2853 29.0381 36.1821C29.0381 37.0789 28.7454 37.8011 28.1602 38.3486C27.5749 38.8962 26.7961 39.1699 25.8237 39.1699C24.8514 39.1699 24.0726 38.8962 23.4873 38.3486Z" fill="white"/>
</svg>
