<svg width="54" height="54" viewBox="0 0 54 54" fill="none" xmlns="http://www.w3.org/2000/svg">
<path d="M27.8101 9C14.8051 9 5.94911 22.1782 10.8541 34.2225L12.9534 39.3705C13.045 39.595 13.0617 39.8431 13.0009 40.0779C12.9401 40.3127 12.805 40.5215 12.6159 40.6732L8.17661 44.235C7.99487 44.3808 7.86288 44.5795 7.79888 44.8035C7.73488 45.0275 7.74203 45.2659 7.81933 45.4857C7.89664 45.7055 8.04028 45.8959 8.23043 46.0306C8.42059 46.1653 8.64786 46.2375 8.88086 46.2375H26.4759C29.0563 46.2384 31.6116 45.7308 33.9958 44.7438C36.38 43.7568 38.5464 42.3097 40.3712 40.4851C42.1959 38.6606 43.6433 36.4944 44.6306 34.1103C45.6179 31.7262 46.1257 29.1709 46.1251 26.5905C46.1251 16.875 38.2501 9 28.5346 9H27.8101Z" fill="#6982FF"/>
</svg>
